<?xml version="1.0" encoding="UTF-8" standalone="no"?><!-- Generator: Gravit.io --><svg xmlns="http://www.w3.org/2000/svg" xmlns:xlink="http://www.w3.org/1999/xlink" style="isolation:isolate" viewBox="0 0 744.915 415.583" width="744.915pt" height="415.583pt"><g><rect x="80.97" y="165" width="83.333" height="83.333" transform="matrix(1,0,0,1,0,0)" fill="rgb(0,0,0)"/><clipPath id="_clipPath_H2W3gWa9m7hQOTKw4tEH8RQNxcZ721uu"><rect x="80.97" y="165" width="83.333" height="83.333" transform="matrix(1,0,0,1,0,0)" fill="rgb(255,255,255)"/></clipPath><g clip-path="url(#_clipPath_H2W3gWa9m7hQOTKw4tEH8RQNxcZ721uu)"><mask id="_mask_Zt1Paqn8oAatEynr0D8RH1WC9wgKgeFO"><rect x="80.97" y="165" width="83.333" height="83.333" fill="white" stroke="none"/></mask><rect x="80.97" y="165" width="83.333" height="83.333" transform="matrix(1,0,0,1,0,0)" fill="rgb(0,0,0)"/><rect x="80.97" y="165" width="83.333" height="83.333" transform="matrix(1,0,0,1,0,0)" fill="rgb(0,0,0)" mask="url(#_mask_Zt1Paqn8oAatEynr0D8RH1WC9wgKgeFO)" vector-effect="non-scaling-stroke" stroke-width="2" stroke="rgb(0,0,0)" stroke-opacity="100" stroke-linejoin="miter" stroke-linecap="square" stroke-miterlimit="2"/></g><rect x="81" y="248.25" width="83.333" height="83.333" transform="matrix(1,0,0,1,0,0)" fill="rgb(255,255,255)"/><clipPath id="_clipPath_GFFHqlwg3sZZ3usDCxrxGJApWpcWDiR0"><rect x="81" y="248.25" width="83.333" height="83.333" transform="matrix(1,0,0,1,0,0)" fill="rgb(255,255,255)"/></clipPath><g clip-path="url(#_clipPath_GFFHqlwg3sZZ3usDCxrxGJApWpcWDiR0)"><mask id="_mask_2l4tsDMV4qQHdE4Ij3BmQOoZYD3ywhwn"><rect x="81" y="248.25" width="83.333" height="83.333" fill="white" stroke="none"/></mask><rect x="81" y="248.25" width="83.333" height="83.333" transform="matrix(1,0,0,1,0,0)" fill="rgb(255,255,255)"/><rect x="81" y="248.25" width="83.333" height="83.333" transform="matrix(1,0,0,1,0,0)" fill="rgb(255,255,255)" mask="url(#_mask_2l4tsDMV4qQHdE4Ij3BmQOoZYD3ywhwn)" vector-effect="non-scaling-stroke" stroke-width="2" stroke="rgb(0,0,0)" stroke-opacity="100" stroke-linejoin="miter" stroke-linecap="square" stroke-miterlimit="2"/></g><rect x="164.303" y="83" width="83.333" height="83.333" transform="matrix(1,0,0,1,0,0)" fill="rgb(0,0,0)"/><clipPath id="_clipPath_505hhA5VzKudhTfaRAkv55u6bKlB4D8h"><rect x="164.303" y="83" width="83.333" height="83.333" transform="matrix(1,0,0,1,0,0)" fill="rgb(255,255,255)"/></clipPath><g clip-path="url(#_clipPath_505hhA5VzKudhTfaRAkv55u6bKlB4D8h)"><mask id="_mask_kpq0hPXcxTPjqEiyI8FeIbSvtpDT6ks2"><rect x="164.303" y="83" width="83.333" height="83.333" fill="white" stroke="none"/></mask><rect x="164.303" y="83" width="83.333" height="83.333" transform="matrix(1,0,0,1,0,0)" fill="rgb(0,0,0)"/><rect x="164.303" y="83" width="83.333" height="83.333" transform="matrix(1,0,0,1,0,0)" fill="rgb(0,0,0)" mask="url(#_mask_kpq0hPXcxTPjqEiyI8FeIbSvtpDT6ks2)" vector-effect="non-scaling-stroke" stroke-width="2" stroke="rgb(0,0,0)" stroke-opacity="100" stroke-linejoin="miter" stroke-linecap="square" stroke-miterlimit="2"/></g><rect x="164.333" y="166.25" width="83.333" height="83.333" transform="matrix(1,0,0,1,0,0)" fill="rgb(255,255,255)"/><clipPath id="_clipPath_5MMvEvRWr0cGspGLkRE6nL7ELKAxihHi"><rect x="164.333" y="166.25" width="83.333" height="83.333" transform="matrix(1,0,0,1,0,0)" fill="rgb(255,255,255)"/></clipPath><g clip-path="url(#_clipPath_5MMvEvRWr0cGspGLkRE6nL7ELKAxihHi)"><mask id="_mask_CI9wVhZgAhuGP7PGOyES13JSAKycP11d"><rect x="164.333" y="166.25" width="83.333" height="83.333" fill="white" stroke="none"/></mask><rect x="164.333" y="166.25" width="83.333" height="83.333" transform="matrix(1,0,0,1,0,0)" fill="rgb(255,255,255)"/><rect x="164.333" y="166.25" width="83.333" height="83.333" transform="matrix(1,0,0,1,0,0)" fill="rgb(255,255,255)" mask="url(#_mask_CI9wVhZgAhuGP7PGOyES13JSAKycP11d)" vector-effect="non-scaling-stroke" stroke-width="2" stroke="rgb(0,0,0)" stroke-opacity="100" stroke-linejoin="miter" stroke-linecap="square" stroke-miterlimit="2"/></g><rect x="164.303" y="249" width="83.333" height="83.333" transform="matrix(1,0,0,1,0,0)" fill="rgb(0,0,0)"/><clipPath id="_clipPath_Yykzb5rtyME2oB7imgqakyTfRhNNd6xH"><rect x="164.303" y="249" width="83.333" height="83.333" transform="matrix(1,0,0,1,0,0)" fill="rgb(255,255,255)"/></clipPath><g clip-path="url(#_clipPath_Yykzb5rtyME2oB7imgqakyTfRhNNd6xH)"><mask id="_mask_ZdoNcVhvkc1ryvX1o0rEie7qR4Dqak8t"><rect x="164.303" y="249" width="83.333" height="83.333" fill="white" stroke="none"/></mask><rect x="164.303" y="249" width="83.333" height="83.333" transform="matrix(1,0,0,1,0,0)" fill="rgb(0,0,0)"/><rect x="164.303" y="249" width="83.333" height="83.333" transform="matrix(1,0,0,1,0,0)" fill="rgb(0,0,0)" mask="url(#_mask_ZdoNcVhvkc1ryvX1o0rEie7qR4Dqak8t)" vector-effect="non-scaling-stroke" stroke-width="2" stroke="rgb(0,0,0)" stroke-opacity="100" stroke-linejoin="miter" stroke-linecap="square" stroke-miterlimit="2"/></g><rect x="81.209" y="82.251" width="83.333" height="83.333" transform="matrix(1,0,0,1,0,0)" fill="rgb(255,255,255)"/><clipPath id="_clipPath_bOXxJOLGINpfdnTYOmYkOJZCKKV9iWeC"><rect x="81.209" y="82.251" width="83.333" height="83.333" transform="matrix(1,0,0,1,0,0)" fill="rgb(255,255,255)"/></clipPath><g clip-path="url(#_clipPath_bOXxJOLGINpfdnTYOmYkOJZCKKV9iWeC)"><mask id="_mask_8TjORifgenAWnoGPbhD2fwIpGnjPIXNa"><rect x="81.209" y="82.251" width="83.333" height="83.333" fill="white" stroke="none"/></mask><rect x="81.209" y="82.251" width="83.333" height="83.333" transform="matrix(1,0,0,1,0,0)" fill="rgb(255,255,255)"/><rect x="81.209" y="82.251" width="83.333" height="83.333" transform="matrix(1,0,0,1,0,0)" fill="rgb(255,255,255)" mask="url(#_mask_8TjORifgenAWnoGPbhD2fwIpGnjPIXNa)" vector-effect="non-scaling-stroke" stroke-width="2" stroke="rgb(0,0,0)" stroke-opacity="100" stroke-linejoin="miter" stroke-linecap="square" stroke-miterlimit="2"/></g><rect x="0.959" y="167.501" width="83.333" height="83.333" transform="matrix(1,0,0,1,0,0)" fill="rgb(255,255,255)"/><clipPath id="_clipPath_mNEol6S4w4ek4aZio4XTo0MI9z8pl4xb"><rect x="0.959" y="167.501" width="83.333" height="83.333" transform="matrix(1,0,0,1,0,0)" fill="rgb(255,255,255)"/></clipPath><g clip-path="url(#_clipPath_mNEol6S4w4ek4aZio4XTo0MI9z8pl4xb)"><mask id="_mask_r90ydNNoE5HpZ6wKhU0s6WVUThbg6Hcn"><rect x="0.959" y="167.501" width="83.333" height="83.333" fill="white" stroke="none"/></mask><rect x="0.959" y="167.501" width="83.333" height="83.333" transform="matrix(1,0,0,1,0,0)" fill="rgb(255,255,255)"/><rect x="0.959" y="167.501" width="83.333" height="83.333" transform="matrix(1,0,0,1,0,0)" fill="rgb(255,255,255)" mask="url(#_mask_r90ydNNoE5HpZ6wKhU0s6WVUThbg6Hcn)" vector-effect="non-scaling-stroke" stroke-width="2" stroke="rgb(0,0,0)" stroke-opacity="100" stroke-linejoin="miter" stroke-linecap="square" stroke-miterlimit="2"/></g><rect x="246.833" y="84.251" width="83.333" height="83.333" transform="matrix(1,0,0,1,0,0)" fill="rgb(255,255,255)"/><clipPath id="_clipPath_SVvmxjEC5hWvappA9Uz7VwL95glU3DQL"><rect x="246.833" y="84.251" width="83.333" height="83.333" transform="matrix(1,0,0,1,0,0)" fill="rgb(255,255,255)"/></clipPath><g clip-path="url(#_clipPath_SVvmxjEC5hWvappA9Uz7VwL95glU3DQL)"><mask id="_mask_gEltovEgiDKXJcCnrJoya4lDunNqS3gJ"><rect x="246.833" y="84.251" width="83.333" height="83.333" fill="white" stroke="none"/></mask><rect x="246.833" y="84.251" width="83.333" height="83.333" transform="matrix(1,0,0,1,0,0)" fill="rgb(255,255,255)"/><rect x="246.833" y="84.251" width="83.333" height="83.333" transform="matrix(1,0,0,1,0,0)" fill="rgb(255,255,255)" mask="url(#_mask_gEltovEgiDKXJcCnrJoya4lDunNqS3gJ)" vector-effect="non-scaling-stroke" stroke-width="2" stroke="rgb(0,0,0)" stroke-opacity="100" stroke-linejoin="miter" stroke-linecap="square" stroke-miterlimit="2"/></g><rect x="329.927" y="83.375" width="83.333" height="83.333" transform="matrix(1,0,0,1,0,0)" fill="rgb(0,0,0)"/><clipPath id="_clipPath_uLOV0L5JKwnyZYdvJ1kkFpnrToJAlxwm"><rect x="329.927" y="83.375" width="83.333" height="83.333" transform="matrix(1,0,0,1,0,0)" fill="rgb(255,255,255)"/></clipPath><g clip-path="url(#_clipPath_uLOV0L5JKwnyZYdvJ1kkFpnrToJAlxwm)"><mask id="_mask_xEYQVtR9knHGSkDFd72xdI6lg13BBwXw"><rect x="329.927" y="83.375" width="83.333" height="83.333" fill="white" stroke="none"/></mask><rect x="329.927" y="83.375" width="83.333" height="83.333" transform="matrix(1,0,0,1,0,0)" fill="rgb(0,0,0)"/><rect x="329.927" y="83.375" width="83.333" height="83.333" transform="matrix(1,0,0,1,0,0)" fill="rgb(0,0,0)" mask="url(#_mask_xEYQVtR9knHGSkDFd72xdI6lg13BBwXw)" vector-effect="non-scaling-stroke" stroke-width="2" stroke="rgb(0,0,0)" stroke-opacity="100" stroke-linejoin="miter" stroke-linecap="square" stroke-miterlimit="2"/></g><rect x="495.552" y="84.625" width="83.333" height="83.333" transform="matrix(1,0,0,1,0,0)" fill="rgb(0,0,0)"/><clipPath id="_clipPath_pe21bFhdEH6qK6DtE3MYE9vpuQqa599u"><rect x="495.552" y="84.625" width="83.333" height="83.333" transform="matrix(1,0,0,1,0,0)" fill="rgb(255,255,255)"/></clipPath><g clip-path="url(#_clipPath_pe21bFhdEH6qK6DtE3MYE9vpuQqa599u)"><mask id="_mask_KCew5FGTC42wKW8UnmfFPUvG7O5ay9b0"><rect x="495.552" y="84.625" width="83.333" height="83.333" fill="white" stroke="none"/></mask><rect x="495.552" y="84.625" width="83.333" height="83.333" transform="matrix(1,0,0,1,0,0)" fill="rgb(0,0,0)"/><rect x="495.552" y="84.625" width="83.333" height="83.333" transform="matrix(1,0,0,1,0,0)" fill="rgb(0,0,0)" mask="url(#_mask_KCew5FGTC42wKW8UnmfFPUvG7O5ay9b0)" vector-effect="non-scaling-stroke" stroke-width="2" stroke="rgb(0,0,0)" stroke-opacity="100" stroke-linejoin="miter" stroke-linecap="square" stroke-miterlimit="2"/></g><rect x="412.457" y="84.626" width="83.333" height="83.333" transform="matrix(1,0,0,1,0,0)" fill="rgb(255,255,255)"/><clipPath id="_clipPath_J6Z1BsLrnNhd5a3DSYBrbRuSBdHTpE9i"><rect x="412.457" y="84.626" width="83.333" height="83.333" transform="matrix(1,0,0,1,0,0)" fill="rgb(255,255,255)"/></clipPath><g clip-path="url(#_clipPath_J6Z1BsLrnNhd5a3DSYBrbRuSBdHTpE9i)"><mask id="_mask_4wNXJsdVtd5FEp5hR6N03ByeWlaspkz8"><rect x="412.457" y="84.626" width="83.333" height="83.333" fill="white" stroke="none"/></mask><rect x="412.457" y="84.626" width="83.333" height="83.333" transform="matrix(1,0,0,1,0,0)" fill="rgb(255,255,255)"/><rect x="412.457" y="84.626" width="83.333" height="83.333" transform="matrix(1,0,0,1,0,0)" fill="rgb(255,255,255)" mask="url(#_mask_4wNXJsdVtd5FEp5hR6N03ByeWlaspkz8)" vector-effect="non-scaling-stroke" stroke-width="2" stroke="rgb(0,0,0)" stroke-opacity="100" stroke-linejoin="miter" stroke-linecap="square" stroke-miterlimit="2"/></g><rect x="247.303" y="167" width="83.333" height="83.333" transform="matrix(1,0,0,1,0,0)" fill="rgb(0,0,0)"/><clipPath id="_clipPath_mW6i1TyIApKFmLSNa1XxbDpmZLX9YVaH"><rect x="247.303" y="167" width="83.333" height="83.333" transform="matrix(1,0,0,1,0,0)" fill="rgb(255,255,255)"/></clipPath><g clip-path="url(#_clipPath_mW6i1TyIApKFmLSNa1XxbDpmZLX9YVaH)"><mask id="_mask_5r882mzH1KWgjRDI77zRjFmScOJPONQh"><rect x="247.303" y="167" width="83.333" height="83.333" fill="white" stroke="none"/></mask><rect x="247.303" y="167" width="83.333" height="83.333" transform="matrix(1,0,0,1,0,0)" fill="rgb(0,0,0)"/><rect x="247.303" y="167" width="83.333" height="83.333" transform="matrix(1,0,0,1,0,0)" fill="rgb(0,0,0)" mask="url(#_mask_5r882mzH1KWgjRDI77zRjFmScOJPONQh)" vector-effect="non-scaling-stroke" stroke-width="2" stroke="rgb(0,0,0)" stroke-opacity="100" stroke-linejoin="miter" stroke-linecap="square" stroke-miterlimit="2"/></g><rect x="247.333" y="250.25" width="83.333" height="83.333" transform="matrix(1,0,0,1,0,0)" fill="rgb(255,255,255)"/><clipPath id="_clipPath_2dkzJDm3wEIixDYpm0nRyufU3TBiK4Tp"><rect x="247.333" y="250.25" width="83.333" height="83.333" transform="matrix(1,0,0,1,0,0)" fill="rgb(255,255,255)"/></clipPath><g clip-path="url(#_clipPath_2dkzJDm3wEIixDYpm0nRyufU3TBiK4Tp)"><mask id="_mask_8y6QhrR9RnyESG1o7d0mZnza2QV1LVPZ"><rect x="247.333" y="250.25" width="83.333" height="83.333" fill="white" stroke="none"/></mask><rect x="247.333" y="250.25" width="83.333" height="83.333" transform="matrix(1,0,0,1,0,0)" fill="rgb(255,255,255)"/><rect x="247.333" y="250.25" width="83.333" height="83.333" transform="matrix(1,0,0,1,0,0)" fill="rgb(255,255,255)" mask="url(#_mask_8y6QhrR9RnyESG1o7d0mZnza2QV1LVPZ)" vector-effect="non-scaling-stroke" stroke-width="2" stroke="rgb(0,0,0)" stroke-opacity="100" stroke-linejoin="miter" stroke-linecap="square" stroke-miterlimit="2"/></g><rect x="329.719" y="250.125" width="83.333" height="83.333" transform="matrix(-1,0,0,-1,742.771,583.583)" fill="rgb(0,0,0)"/><clipPath id="_clipPath_rchwdAgRF1WkOZuQcoe65GJ4FQIueECg"><rect x="329.719" y="250.124" width="83.333" height="83.333" transform="matrix(1,0,0,1,0,0)" fill="rgb(255,255,255)"/></clipPath><g clip-path="url(#_clipPath_rchwdAgRF1WkOZuQcoe65GJ4FQIueECg)"><mask id="_mask_ILkErkqYVzWYmF0iooNEt4Cg98H5pwf6"><rect x="329.719" y="250.125" width="83.333" height="83.333" fill="white" stroke="none"/></mask><rect x="329.719" y="250.125" width="83.333" height="83.333" transform="matrix(-1,0,0,-1,742.771,583.583)" fill="rgb(0,0,0)"/><rect x="329.719" y="250.125" width="83.333" height="83.333" transform="matrix(-1,0,0,-1,742.771,583.583)" fill="rgb(0,0,0)" mask="url(#_mask_ILkErkqYVzWYmF0iooNEt4Cg98H5pwf6)" vector-effect="non-scaling-stroke" stroke-width="2" stroke="rgb(0,0,0)" stroke-opacity="100" stroke-linejoin="miter" stroke-linecap="square" stroke-miterlimit="2"/></g><rect x="329.749" y="166.875" width="83.333" height="83.333" transform="matrix(-1,0,0,-1,742.831,417.083)" fill="rgb(255,255,255)"/><clipPath id="_clipPath_TwTeapEzdIJyu7Vkp7aPE746EbqFhZbt"><rect x="329.749" y="166.874" width="83.333" height="83.333" transform="matrix(1,0,0,1,0,0)" fill="rgb(255,255,255)"/></clipPath><g clip-path="url(#_clipPath_TwTeapEzdIJyu7Vkp7aPE746EbqFhZbt)"><mask id="_mask_kkW46jeFKMQ5xrIXKTIqtt7S1vYvoDls"><rect x="329.749" y="166.875" width="83.333" height="83.333" fill="white" stroke="none"/></mask><rect x="329.749" y="166.875" width="83.333" height="83.333" transform="matrix(-1,0,0,-1,742.831,417.083)" fill="rgb(255,255,255)"/><rect x="329.749" y="166.875" width="83.333" height="83.333" transform="matrix(-1,0,0,-1,742.831,417.083)" fill="rgb(255,255,255)" mask="url(#_mask_kkW46jeFKMQ5xrIXKTIqtt7S1vYvoDls)" vector-effect="non-scaling-stroke" stroke-width="2" stroke="rgb(0,0,0)" stroke-opacity="100" stroke-linejoin="miter" stroke-linecap="square" stroke-miterlimit="2"/></g><rect x="413.083" y="248.875" width="83.333" height="83.333" transform="matrix(-1,0,0,-1,909.499,581.083)" fill="rgb(255,255,255)"/><clipPath id="_clipPath_KJ39qJzglkF12lyRCBTWOODkLh6H6Sun"><rect x="413.082" y="248.874" width="83.333" height="83.333" transform="matrix(1,0,0,1,0,0)" fill="rgb(255,255,255)"/></clipPath><g clip-path="url(#_clipPath_KJ39qJzglkF12lyRCBTWOODkLh6H6Sun)"><mask id="_mask_rdJj6pFcbPC8aCjBhelNqMiq9g7Ux5b1"><rect x="413.083" y="248.875" width="83.333" height="83.333" fill="white" stroke="none"/></mask><rect x="413.083" y="248.875" width="83.333" height="83.333" transform="matrix(-1,0,0,-1,909.499,581.083)" fill="rgb(255,255,255)"/><rect x="413.083" y="248.875" width="83.333" height="83.333" transform="matrix(-1,0,0,-1,909.499,581.083)" fill="rgb(255,255,255)" mask="url(#_mask_rdJj6pFcbPC8aCjBhelNqMiq9g7Ux5b1)" vector-effect="non-scaling-stroke" stroke-width="2" stroke="rgb(0,0,0)" stroke-opacity="100" stroke-linejoin="miter" stroke-linecap="square" stroke-miterlimit="2"/></g><rect x="413.052" y="166.125" width="83.333" height="83.333" transform="matrix(-1,0,0,-1,909.437,415.583)" fill="rgb(0,0,0)"/><clipPath id="_clipPath_kNpnp9hN9qbKQ0OFY4CL90tQ2ukfCKl2"><rect x="413.052" y="166.124" width="83.333" height="83.333" transform="matrix(1,0,0,1,0,0)" fill="rgb(255,255,255)"/></clipPath><g clip-path="url(#_clipPath_kNpnp9hN9qbKQ0OFY4CL90tQ2ukfCKl2)"><mask id="_mask_eyhysPhGJgJL6y9xwz03MpDH4iQTzO1A"><rect x="413.052" y="166.125" width="83.333" height="83.333" fill="white" stroke="none"/></mask><rect x="413.052" y="166.125" width="83.333" height="83.333" transform="matrix(-1,0,0,-1,909.437,415.583)" fill="rgb(0,0,0)"/><rect x="413.052" y="166.125" width="83.333" height="83.333" transform="matrix(-1,0,0,-1,909.437,415.583)" fill="rgb(0,0,0)" mask="url(#_mask_eyhysPhGJgJL6y9xwz03MpDH4iQTzO1A)" vector-effect="non-scaling-stroke" stroke-width="2" stroke="rgb(0,0,0)" stroke-opacity="100" stroke-linejoin="miter" stroke-linecap="square" stroke-miterlimit="2"/></g><rect x="577.957" y="84.626" width="83.333" height="83.333" transform="matrix(1,0,0,1,0,0)" fill="rgb(255,255,255)"/><clipPath id="_clipPath_5jiVfI5LvHNjPW4ZJLJJHP9xmPlfQMQi"><rect x="577.957" y="84.626" width="83.333" height="83.333" transform="matrix(1,0,0,1,0,0)" fill="rgb(255,255,255)"/></clipPath><g clip-path="url(#_clipPath_5jiVfI5LvHNjPW4ZJLJJHP9xmPlfQMQi)"><mask id="_mask_cqXbdYffa2MQMluVqN8nHApPxpQRrWSA"><rect x="577.957" y="84.626" width="83.333" height="83.333" fill="white" stroke="none"/></mask><rect x="577.957" y="84.626" width="83.333" height="83.333" transform="matrix(1,0,0,1,0,0)" fill="rgb(255,255,255)"/><rect x="577.957" y="84.626" width="83.333" height="83.333" transform="matrix(1,0,0,1,0,0)" fill="rgb(255,255,255)" mask="url(#_mask_cqXbdYffa2MQMluVqN8nHApPxpQRrWSA)" vector-effect="non-scaling-stroke" stroke-width="2" stroke="rgb(0,0,0)" stroke-opacity="100" stroke-linejoin="miter" stroke-linecap="square" stroke-miterlimit="2"/></g><rect x="578.582" y="248.875" width="83.333" height="83.333" transform="matrix(-1,0,0,-1,1240.497,581.083)" fill="rgb(255,255,255)"/><clipPath id="_clipPath_K1PTgM8V74yczHMGL7xUwsRqzWIW1Df6"><rect x="578.582" y="248.874" width="83.333" height="83.333" transform="matrix(1,0,0,1,0,0)" fill="rgb(255,255,255)"/></clipPath><g clip-path="url(#_clipPath_K1PTgM8V74yczHMGL7xUwsRqzWIW1Df6)"><mask id="_mask_IBlC74zMBgcj5zsmSntePthxD5eYD8aE"><rect x="578.582" y="248.875" width="83.333" height="83.333" fill="white" stroke="none"/></mask><rect x="578.582" y="248.875" width="83.333" height="83.333" transform="matrix(-1,0,0,-1,1240.497,581.083)" fill="rgb(255,255,255)"/><rect x="578.582" y="248.875" width="83.333" height="83.333" transform="matrix(-1,0,0,-1,1240.497,581.083)" fill="rgb(255,255,255)" mask="url(#_mask_IBlC74zMBgcj5zsmSntePthxD5eYD8aE)" vector-effect="non-scaling-stroke" stroke-width="2" stroke="rgb(0,0,0)" stroke-opacity="100" stroke-linejoin="miter" stroke-linecap="square" stroke-miterlimit="2"/></g><rect x="578.552" y="166.125" width="83.333" height="83.333" transform="matrix(-1,0,0,-1,1240.437,415.583)" fill="rgb(0,0,0)"/><clipPath id="_clipPath_YbIwnkYKlLpcU5Df1bXSRIRsBVNtmjb5"><rect x="578.551" y="166.124" width="83.333" height="83.333" transform="matrix(1,0,0,1,0,0)" fill="rgb(255,255,255)"/></clipPath><g clip-path="url(#_clipPath_YbIwnkYKlLpcU5Df1bXSRIRsBVNtmjb5)"><mask id="_mask_GeCcPmDtNZQ1l3YQBIDlvaJNSKr85FnO"><rect x="578.552" y="166.125" width="83.333" height="83.333" fill="white" stroke="none"/></mask><rect x="578.552" y="166.125" width="83.333" height="83.333" transform="matrix(-1,0,0,-1,1240.437,415.583)" fill="rgb(0,0,0)"/><rect x="578.552" y="166.125" width="83.333" height="83.333" transform="matrix(-1,0,0,-1,1240.437,415.583)" fill="rgb(0,0,0)" mask="url(#_mask_GeCcPmDtNZQ1l3YQBIDlvaJNSKr85FnO)" vector-effect="non-scaling-stroke" stroke-width="2" stroke="rgb(0,0,0)" stroke-opacity="100" stroke-linejoin="miter" stroke-linecap="square" stroke-miterlimit="2"/></g><rect x="579.302" y="331.125" width="83.333" height="83.333" transform="matrix(-1,0,0,-1,1241.937,745.583)" fill="rgb(0,0,0)"/><clipPath id="_clipPath_aLsm6QQVJHQTgN7C3JM5AvJfhuY2vj3e"><rect x="579.301" y="331.124" width="83.333" height="83.333" transform="matrix(1,0,0,1,0,0)" fill="rgb(255,255,255)"/></clipPath><g clip-path="url(#_clipPath_aLsm6QQVJHQTgN7C3JM5AvJfhuY2vj3e)"><mask id="_mask_GtZSmPNmSqC65UtM6HgqeYgstNPg4NLs"><rect x="579.302" y="331.125" width="83.333" height="83.333" fill="white" stroke="none"/></mask><rect x="579.302" y="331.125" width="83.333" height="83.333" transform="matrix(-1,0,0,-1,1241.937,745.583)" fill="rgb(0,0,0)"/><rect x="579.302" y="331.125" width="83.333" height="83.333" transform="matrix(-1,0,0,-1,1241.937,745.583)" fill="rgb(0,0,0)" mask="url(#_mask_GtZSmPNmSqC65UtM6HgqeYgstNPg4NLs)" vector-effect="non-scaling-stroke" stroke-width="2" stroke="rgb(0,0,0)" stroke-opacity="100" stroke-linejoin="miter" stroke-linecap="square" stroke-miterlimit="2"/></g><rect x="496.052" y="248.125" width="83.333" height="83.333" transform="matrix(-1,0,0,-1,1075.437,579.583)" fill="rgb(0,0,0)"/><clipPath id="_clipPath_HFCjnm5dnrStuAYPP4Gug8HtEglhOUGp"><rect x="496.052" y="248.124" width="83.333" height="83.333" transform="matrix(1,0,0,1,0,0)" fill="rgb(255,255,255)"/></clipPath><g clip-path="url(#_clipPath_HFCjnm5dnrStuAYPP4Gug8HtEglhOUGp)"><mask id="_mask_CjW610UHwI7HUZNhqPXUhACJZA6XsEG9"><rect x="496.052" y="248.125" width="83.333" height="83.333" fill="white" stroke="none"/></mask><rect x="496.052" y="248.125" width="83.333" height="83.333" transform="matrix(-1,0,0,-1,1075.437,579.583)" fill="rgb(0,0,0)"/><rect x="496.052" y="248.125" width="83.333" height="83.333" transform="matrix(-1,0,0,-1,1075.437,579.583)" fill="rgb(0,0,0)" mask="url(#_mask_CjW610UHwI7HUZNhqPXUhACJZA6XsEG9)" vector-effect="non-scaling-stroke" stroke-width="2" stroke="rgb(0,0,0)" stroke-opacity="100" stroke-linejoin="miter" stroke-linecap="square" stroke-miterlimit="2"/></g><rect x="0" y="330.25" width="83.333" height="83.333" transform="matrix(1,0,0,1,0,0)" fill="rgb(255,255,255)"/><clipPath id="_clipPath_lUi0Q3U2KIWOEUTjY5kzChN8EWLMLqkZ"><rect x="0" y="330.25" width="83.333" height="83.333" transform="matrix(1,0,0,1,0,0)" fill="rgb(255,255,255)"/></clipPath><g clip-path="url(#_clipPath_lUi0Q3U2KIWOEUTjY5kzChN8EWLMLqkZ)"><mask id="_mask_Qx4PZg11Bcc9wAuJOR1ddHsRK3DTCeMs"><rect x="0" y="330.25" width="83.333" height="83.333" fill="white" stroke="none"/></mask><rect x="0" y="330.25" width="83.333" height="83.333" transform="matrix(1,0,0,1,0,0)" fill="rgb(255,255,255)"/><rect x="0" y="330.25" width="83.333" height="83.333" transform="matrix(1,0,0,1,0,0)" fill="rgb(255,255,255)" mask="url(#_mask_Qx4PZg11Bcc9wAuJOR1ddHsRK3DTCeMs)" vector-effect="non-scaling-stroke" stroke-width="2" stroke="rgb(0,0,0)" stroke-opacity="100" stroke-linejoin="miter" stroke-linecap="square" stroke-miterlimit="2"/></g><rect x="83.303" y="331" width="83.333" height="83.333" transform="matrix(1,0,0,1,0,0)" fill="rgb(0,0,0)"/><clipPath id="_clipPath_rv1v4rWpXk9ZJRRrmRa6nTZfYuTFg3on"><rect x="83.303" y="331" width="83.333" height="83.333" transform="matrix(1,0,0,1,0,0)" fill="rgb(255,255,255)"/></clipPath><g clip-path="url(#_clipPath_rv1v4rWpXk9ZJRRrmRa6nTZfYuTFg3on)"><mask id="_mask_dtHIz5NoSzYFGLiMWTOPf7KPuiAmFMtF"><rect x="83.303" y="331" width="83.333" height="83.333" fill="white" stroke="none"/></mask><rect x="83.303" y="331" width="83.333" height="83.333" transform="matrix(1,0,0,1,0,0)" fill="rgb(0,0,0)"/><rect x="83.303" y="331" width="83.333" height="83.333" transform="matrix(1,0,0,1,0,0)" fill="rgb(0,0,0)" mask="url(#_mask_dtHIz5NoSzYFGLiMWTOPf7KPuiAmFMtF)" vector-effect="non-scaling-stroke" stroke-width="2" stroke="rgb(0,0,0)" stroke-opacity="100" stroke-linejoin="miter" stroke-linecap="square" stroke-miterlimit="2"/></g><rect x="0.303" y="248.75" width="83.333" height="83.333" transform="matrix(1,0,0,1,0,0)" fill="rgb(0,0,0)"/><clipPath id="_clipPath_34QFNXdpQWxY2dxvoIDucvHVS9m70pr2"><rect x="0.303" y="248.75" width="83.333" height="83.333" transform="matrix(1,0,0,1,0,0)" fill="rgb(255,255,255)"/></clipPath><g clip-path="url(#_clipPath_34QFNXdpQWxY2dxvoIDucvHVS9m70pr2)"><mask id="_mask_uAYT3vbfBB5Tm4cwBVPGxBSFmWGOrvCi"><rect x="0.303" y="248.75" width="83.333" height="83.333" fill="white" stroke="none"/></mask><rect x="0.303" y="248.75" width="83.333" height="83.333" transform="matrix(1,0,0,1,0,0)" fill="rgb(0,0,0)"/><rect x="0.303" y="248.75" width="83.333" height="83.333" transform="matrix(1,0,0,1,0,0)" fill="rgb(0,0,0)" mask="url(#_mask_uAYT3vbfBB5Tm4cwBVPGxBSFmWGOrvCi)" vector-effect="non-scaling-stroke" stroke-width="2" stroke="rgb(0,0,0)" stroke-opacity="100" stroke-linejoin="miter" stroke-linecap="square" stroke-miterlimit="2"/></g><rect x="166.333" y="332.25" width="83.333" height="83.333" transform="matrix(1,0,0,1,0,0)" fill="rgb(255,255,255)"/><clipPath id="_clipPath_U5sWmABaAFyYCwYfrHi2zZ9bHMPPiBfj"><rect x="166.333" y="332.25" width="83.333" height="83.333" transform="matrix(1,0,0,1,0,0)" fill="rgb(255,255,255)"/></clipPath><g clip-path="url(#_clipPath_U5sWmABaAFyYCwYfrHi2zZ9bHMPPiBfj)"><mask id="_mask_cuyV1y8kfnZs4xckO8l4lHJfHFs1H8Ra"><rect x="166.333" y="332.25" width="83.333" height="83.333" fill="white" stroke="none"/></mask><rect x="166.333" y="332.25" width="83.333" height="83.333" transform="matrix(1,0,0,1,0,0)" fill="rgb(255,255,255)"/><rect x="166.333" y="332.25" width="83.333" height="83.333" transform="matrix(1,0,0,1,0,0)" fill="rgb(255,255,255)" mask="url(#_mask_cuyV1y8kfnZs4xckO8l4lHJfHFs1H8Ra)" vector-effect="non-scaling-stroke" stroke-width="2" stroke="rgb(0,0,0)" stroke-opacity="100" stroke-linejoin="miter" stroke-linecap="square" stroke-miterlimit="2"/></g><rect x="248.719" y="332.125" width="83.333" height="83.333" transform="matrix(-1,0,0,-1,580.771,747.583)" fill="rgb(0,0,0)"/><clipPath id="_clipPath_U8uTMW0ZXfqBX1JVxpRZNsNWPinztHGU"><rect x="248.719" y="332.124" width="83.333" height="83.333" transform="matrix(1,0,0,1,0,0)" fill="rgb(255,255,255)"/></clipPath><g clip-path="url(#_clipPath_U8uTMW0ZXfqBX1JVxpRZNsNWPinztHGU)"><mask id="_mask_bHiZp5tdAaCwF00Dgbh3fcB5H2ehfQNJ"><rect x="248.719" y="332.125" width="83.333" height="83.333" fill="white" stroke="none"/></mask><rect x="248.719" y="332.125" width="83.333" height="83.333" transform="matrix(-1,0,0,-1,580.771,747.583)" fill="rgb(0,0,0)"/><rect x="248.719" y="332.125" width="83.333" height="83.333" transform="matrix(-1,0,0,-1,580.771,747.583)" fill="rgb(0,0,0)" mask="url(#_mask_bHiZp5tdAaCwF00Dgbh3fcB5H2ehfQNJ)" vector-effect="non-scaling-stroke" stroke-width="2" stroke="rgb(0,0,0)" stroke-opacity="100" stroke-linejoin="miter" stroke-linecap="square" stroke-miterlimit="2"/></g><rect x="332.083" y="330.875" width="83.333" height="83.333" transform="matrix(-1,0,0,-1,747.499,745.083)" fill="rgb(255,255,255)"/><clipPath id="_clipPath_decrGwty9HW9bAALfaf6hzjLwRApSAf5"><rect x="332.082" y="330.874" width="83.333" height="83.333" transform="matrix(1,0,0,1,0,0)" fill="rgb(255,255,255)"/></clipPath><g clip-path="url(#_clipPath_decrGwty9HW9bAALfaf6hzjLwRApSAf5)"><mask id="_mask_kvxb6Ax7HC3GJaQtqy8GvwmVlDfonS2z"><rect x="332.083" y="330.875" width="83.333" height="83.333" fill="white" stroke="none"/></mask><rect x="332.083" y="330.875" width="83.333" height="83.333" transform="matrix(-1,0,0,-1,747.499,745.083)" fill="rgb(255,255,255)"/><rect x="332.083" y="330.875" width="83.333" height="83.333" transform="matrix(-1,0,0,-1,747.499,745.083)" fill="rgb(255,255,255)" mask="url(#_mask_kvxb6Ax7HC3GJaQtqy8GvwmVlDfonS2z)" vector-effect="non-scaling-stroke" stroke-width="2" stroke="rgb(0,0,0)" stroke-opacity="100" stroke-linejoin="miter" stroke-linecap="square" stroke-miterlimit="2"/></g><rect x="497.582" y="330.875" width="83.333" height="83.333" transform="matrix(-1,0,0,-1,1078.497,745.083)" fill="rgb(255,255,255)"/><clipPath id="_clipPath_gGHAsVviU8fz46TrRC5KZFNfzYIMIbAg"><rect x="497.582" y="330.874" width="83.333" height="83.333" transform="matrix(1,0,0,1,0,0)" fill="rgb(255,255,255)"/></clipPath><g clip-path="url(#_clipPath_gGHAsVviU8fz46TrRC5KZFNfzYIMIbAg)"><mask id="_mask_rJxSqi9zmEmEFvALQNoGZ72FNFEEZ62k"><rect x="497.582" y="330.875" width="83.333" height="83.333" fill="white" stroke="none"/></mask><rect x="497.582" y="330.875" width="83.333" height="83.333" transform="matrix(-1,0,0,-1,1078.497,745.083)" fill="rgb(255,255,255)"/><rect x="497.582" y="330.875" width="83.333" height="83.333" transform="matrix(-1,0,0,-1,1078.497,745.083)" fill="rgb(255,255,255)" mask="url(#_mask_rJxSqi9zmEmEFvALQNoGZ72FNFEEZ62k)" vector-effect="non-scaling-stroke" stroke-width="2" stroke="rgb(0,0,0)" stroke-opacity="100" stroke-linejoin="miter" stroke-linecap="square" stroke-miterlimit="2"/></g><rect x="415.052" y="330.125" width="83.333" height="83.333" transform="matrix(-1,0,0,-1,913.437,743.583)" fill="rgb(0,0,0)"/><clipPath id="_clipPath_U7pcgVFZli46qSM8ZSPKKJylnAFVJMfF"><rect x="415.052" y="330.124" width="83.333" height="83.333" transform="matrix(1,0,0,1,0,0)" fill="rgb(255,255,255)"/></clipPath><g clip-path="url(#_clipPath_U7pcgVFZli46qSM8ZSPKKJylnAFVJMfF)"><mask id="_mask_ZfuSoL8ywkTdw4VhHaiUKA3qqReOWDmP"><rect x="415.052" y="330.125" width="83.333" height="83.333" fill="white" stroke="none"/></mask><rect x="415.052" y="330.125" width="83.333" height="83.333" transform="matrix(-1,0,0,-1,913.437,743.583)" fill="rgb(0,0,0)"/><rect x="415.052" y="330.125" width="83.333" height="83.333" transform="matrix(-1,0,0,-1,913.437,743.583)" fill="rgb(0,0,0)" mask="url(#_mask_ZfuSoL8ywkTdw4VhHaiUKA3qqReOWDmP)" vector-effect="non-scaling-stroke" stroke-width="2" stroke="rgb(0,0,0)" stroke-opacity="100" stroke-linejoin="miter" stroke-linecap="square" stroke-miterlimit="2"/></g><rect x="496.083" y="164.875" width="83.333" height="83.333" transform="matrix(-1,0,0,-1,1075.499,413.083)" fill="rgb(255,255,255)"/><clipPath id="_clipPath_L9OLUrWCvBr9hLa4gZ2O7dclAroaxAh6"><rect x="496.082" y="164.874" width="83.333" height="83.333" transform="matrix(1,0,0,1,0,0)" fill="rgb(255,255,255)"/></clipPath><g clip-path="url(#_clipPath_L9OLUrWCvBr9hLa4gZ2O7dclAroaxAh6)"><mask id="_mask_oRw4n67KJNSQd7AG9NdA37oLODIsQrRo"><rect x="496.083" y="164.875" width="83.333" height="83.333" fill="white" stroke="none"/></mask><rect x="496.083" y="164.875" width="83.333" height="83.333" transform="matrix(-1,0,0,-1,1075.499,413.083)" fill="rgb(255,255,255)"/><rect x="496.083" y="164.875" width="83.333" height="83.333" transform="matrix(-1,0,0,-1,1075.499,413.083)" fill="rgb(255,255,255)" mask="url(#_mask_oRw4n67KJNSQd7AG9NdA37oLODIsQrRo)" vector-effect="non-scaling-stroke" stroke-width="2" stroke="rgb(0,0,0)" stroke-opacity="100" stroke-linejoin="miter" stroke-linecap="square" stroke-miterlimit="2"/></g><rect x="165" y="0" width="83.333" height="83.333" transform="matrix(1,0,0,1,0,0)" fill="rgb(255,255,255)"/><clipPath id="_clipPath_fq1WLgiWllzqwOiDQaJkufl5t1NHEQiJ"><rect x="165" y="0" width="83.333" height="83.333" transform="matrix(1,0,0,1,0,0)" fill="rgb(255,255,255)"/></clipPath><g clip-path="url(#_clipPath_fq1WLgiWllzqwOiDQaJkufl5t1NHEQiJ)"><mask id="_mask_PDcPD0H1qYO7TCWIHAusXh7bOWvgOIQI"><rect x="165" y="0" width="83.333" height="83.333" fill="white" stroke="none"/></mask><rect x="165" y="0" width="83.333" height="83.333" transform="matrix(1,0,0,1,0,0)" fill="rgb(255,255,255)"/><rect x="165" y="0" width="83.333" height="83.333" transform="matrix(1,0,0,1,0,0)" fill="rgb(255,255,255)" mask="url(#_mask_PDcPD0H1qYO7TCWIHAusXh7bOWvgOIQI)" vector-effect="non-scaling-stroke" stroke-width="2" stroke="rgb(0,0,0)" stroke-opacity="100" stroke-linejoin="miter" stroke-linecap="square" stroke-miterlimit="2"/></g><rect x="2.75" y="1.25" width="83.333" height="83.333" transform="matrix(1,0,0,1,0,0)" fill="rgb(255,255,255)"/><clipPath id="_clipPath_HnyNHagCtHcDNL8FwuRYVWNVyFMJfGwc"><rect x="2.75" y="1.25" width="83.333" height="83.333" transform="matrix(1,0,0,1,0,0)" fill="rgb(255,255,255)"/></clipPath><g clip-path="url(#_clipPath_HnyNHagCtHcDNL8FwuRYVWNVyFMJfGwc)"><mask id="_mask_7bYWM0qYx0azo5yb3SWf1H2ogJfUrxXi"><rect x="2.75" y="1.25" width="83.333" height="83.333" fill="white" stroke="none"/></mask><rect x="2.75" y="1.25" width="83.333" height="83.333" transform="matrix(1,0,0,1,0,0)" fill="rgb(255,255,255)"/><rect x="2.75" y="1.25" width="83.333" height="83.333" transform="matrix(1,0,0,1,0,0)" fill="rgb(255,255,255)" mask="url(#_mask_7bYWM0qYx0azo5yb3SWf1H2ogJfUrxXi)" vector-effect="non-scaling-stroke" stroke-width="2" stroke="rgb(0,0,0)" stroke-opacity="100" stroke-linejoin="miter" stroke-linecap="square" stroke-miterlimit="2"/></g><rect x="248.303" y="0.75" width="83.333" height="83.333" transform="matrix(1,0,0,1,0,0)" fill="rgb(0,0,0)"/><clipPath id="_clipPath_NK0omjQOKUQgLcFgGPIHwbBJuxC73gHP"><rect x="248.303" y="0.75" width="83.333" height="83.333" transform="matrix(1,0,0,1,0,0)" fill="rgb(255,255,255)"/></clipPath><g clip-path="url(#_clipPath_NK0omjQOKUQgLcFgGPIHwbBJuxC73gHP)"><mask id="_mask_PGBg680IxY2wTjK7qZoH30ALimtWmMzh"><rect x="248.303" y="0.75" width="83.333" height="83.333" fill="white" stroke="none"/></mask><rect x="248.303" y="0.75" width="83.333" height="83.333" transform="matrix(1,0,0,1,0,0)" fill="rgb(0,0,0)"/><rect x="248.303" y="0.75" width="83.333" height="83.333" transform="matrix(1,0,0,1,0,0)" fill="rgb(0,0,0)" mask="url(#_mask_PGBg680IxY2wTjK7qZoH30ALimtWmMzh)" vector-effect="non-scaling-stroke" stroke-width="2" stroke="rgb(0,0,0)" stroke-opacity="100" stroke-linejoin="miter" stroke-linecap="square" stroke-miterlimit="2"/></g><rect x="1.553" y="84" width="83.333" height="83.333" transform="matrix(1,0,0,1,0,0)" fill="rgb(0,0,0)"/><clipPath id="_clipPath_5XL27bjBQEUJA6Ew6ppblZR3e0N8zun2"><rect x="1.553" y="84" width="83.333" height="83.333" transform="matrix(1,0,0,1,0,0)" fill="rgb(255,255,255)"/></clipPath><g clip-path="url(#_clipPath_5XL27bjBQEUJA6Ew6ppblZR3e0N8zun2)"><mask id="_mask_uOXprz73mYFLoFCTsQI1Q3udmm3buXDb"><rect x="1.553" y="84" width="83.333" height="83.333" fill="white" stroke="none"/></mask><rect x="1.553" y="84" width="83.333" height="83.333" transform="matrix(1,0,0,1,0,0)" fill="rgb(0,0,0)"/><rect x="1.553" y="84" width="83.333" height="83.333" transform="matrix(1,0,0,1,0,0)" fill="rgb(0,0,0)" mask="url(#_mask_uOXprz73mYFLoFCTsQI1Q3udmm3buXDb)" vector-effect="non-scaling-stroke" stroke-width="2" stroke="rgb(0,0,0)" stroke-opacity="100" stroke-linejoin="miter" stroke-linecap="square" stroke-miterlimit="2"/></g><rect x="331.333" y="2" width="83.333" height="83.333" transform="matrix(1,0,0,1,0,0)" fill="rgb(255,255,255)"/><clipPath id="_clipPath_ZgOS8k8pYELyPQJDTvYNOEOEmSBOYOtT"><rect x="331.333" y="2" width="83.333" height="83.333" transform="matrix(1,0,0,1,0,0)" fill="rgb(255,255,255)"/></clipPath><g clip-path="url(#_clipPath_ZgOS8k8pYELyPQJDTvYNOEOEmSBOYOtT)"><mask id="_mask_86do67T2lorV5X4T6q9DSVGnoGplFCp1"><rect x="331.333" y="2" width="83.333" height="83.333" fill="white" stroke="none"/></mask><rect x="331.333" y="2" width="83.333" height="83.333" transform="matrix(1,0,0,1,0,0)" fill="rgb(255,255,255)"/><rect x="331.333" y="2" width="83.333" height="83.333" transform="matrix(1,0,0,1,0,0)" fill="rgb(255,255,255)" mask="url(#_mask_86do67T2lorV5X4T6q9DSVGnoGplFCp1)" vector-effect="non-scaling-stroke" stroke-width="2" stroke="rgb(0,0,0)" stroke-opacity="100" stroke-linejoin="miter" stroke-linecap="square" stroke-miterlimit="2"/></g><rect x="413.719" y="1.875" width="83.333" height="83.333" transform="matrix(-1,0,0,-1,910.771,87.083)" fill="rgb(0,0,0)"/><clipPath id="_clipPath_jvu3BsefaiPQ3jN84WfSukZimk4qZ3ER"><rect x="413.719" y="1.874" width="83.333" height="83.333" transform="matrix(1,0,0,1,0,0)" fill="rgb(255,255,255)"/></clipPath><g clip-path="url(#_clipPath_jvu3BsefaiPQ3jN84WfSukZimk4qZ3ER)"><mask id="_mask_XsgdD3LffZxL8XzAl1jiDEKgY0nvBu1i"><rect x="413.719" y="1.875" width="83.333" height="83.333" fill="white" stroke="none"/></mask><rect x="413.719" y="1.875" width="83.333" height="83.333" transform="matrix(-1,0,0,-1,910.771,87.083)" fill="rgb(0,0,0)"/><rect x="413.719" y="1.875" width="83.333" height="83.333" transform="matrix(-1,0,0,-1,910.771,87.083)" fill="rgb(0,0,0)" mask="url(#_mask_XsgdD3LffZxL8XzAl1jiDEKgY0nvBu1i)" vector-effect="non-scaling-stroke" stroke-width="2" stroke="rgb(0,0,0)" stroke-opacity="100" stroke-linejoin="miter" stroke-linecap="square" stroke-miterlimit="2"/></g><rect x="659.457" y="167.126" width="83.333" height="83.333" transform="matrix(1,0,0,1,0,0)" fill="rgb(255,255,255)"/><clipPath id="_clipPath_XVyhygbLsiOluYSeIpTbFoymjpNX0IpA"><rect x="659.457" y="167.126" width="83.333" height="83.333" transform="matrix(1,0,0,1,0,0)" fill="rgb(255,255,255)"/></clipPath><g clip-path="url(#_clipPath_XVyhygbLsiOluYSeIpTbFoymjpNX0IpA)"><mask id="_mask_J4FWWmBDoeQFAOLLFbLjamq3XqqXrnoa"><rect x="659.457" y="167.126" width="83.333" height="83.333" fill="white" stroke="none"/></mask><rect x="659.457" y="167.126" width="83.333" height="83.333" transform="matrix(1,0,0,1,0,0)" fill="rgb(255,255,255)"/><rect x="659.457" y="167.126" width="83.333" height="83.333" transform="matrix(1,0,0,1,0,0)" fill="rgb(255,255,255)" mask="url(#_mask_J4FWWmBDoeQFAOLLFbLjamq3XqqXrnoa)" vector-effect="non-scaling-stroke" stroke-width="2" stroke="rgb(0,0,0)" stroke-opacity="100" stroke-linejoin="miter" stroke-linecap="square" stroke-miterlimit="2"/></g><rect x="660.083" y="331.375" width="83.333" height="83.333" transform="matrix(-1,0,0,-1,1403.499,746.083)" fill="rgb(255,255,255)"/><clipPath id="_clipPath_nqTVjXBLYOb8RaswvhNiAmOxGGdyyihu"><rect x="660.082" y="331.374" width="83.333" height="83.333" transform="matrix(1,0,0,1,0,0)" fill="rgb(255,255,255)"/></clipPath><g clip-path="url(#_clipPath_nqTVjXBLYOb8RaswvhNiAmOxGGdyyihu)"><mask id="_mask_HNqfHL6SMH7nvc3P0s1VCNXxzGpwuC2L"><rect x="660.083" y="331.375" width="83.333" height="83.333" fill="white" stroke="none"/></mask><rect x="660.083" y="331.375" width="83.333" height="83.333" transform="matrix(-1,0,0,-1,1403.499,746.083)" fill="rgb(255,255,255)"/><rect x="660.083" y="331.375" width="83.333" height="83.333" transform="matrix(-1,0,0,-1,1403.499,746.083)" fill="rgb(255,255,255)" mask="url(#_mask_HNqfHL6SMH7nvc3P0s1VCNXxzGpwuC2L)" vector-effect="non-scaling-stroke" stroke-width="2" stroke="rgb(0,0,0)" stroke-opacity="100" stroke-linejoin="miter" stroke-linecap="square" stroke-miterlimit="2"/></g><rect x="660.052" y="248.625" width="83.333" height="83.333" transform="matrix(-1,0,0,-1,1403.437,580.583)" fill="rgb(0,0,0)"/><clipPath id="_clipPath_Fn3nuZutLA9olC0Hqnfjp3Yev27wJxnt"><rect x="660.052" y="248.624" width="83.333" height="83.333" transform="matrix(1,0,0,1,0,0)" fill="rgb(255,255,255)"/></clipPath><g clip-path="url(#_clipPath_Fn3nuZutLA9olC0Hqnfjp3Yev27wJxnt)"><mask id="_mask_n8ZTjPB1HH4Cmth5JWZLcm6Q0jW5YjI7"><rect x="660.052" y="248.625" width="83.333" height="83.333" fill="white" stroke="none"/></mask><rect x="660.052" y="248.625" width="83.333" height="83.333" transform="matrix(-1,0,0,-1,1403.437,580.583)" fill="rgb(0,0,0)"/><rect x="660.052" y="248.625" width="83.333" height="83.333" transform="matrix(-1,0,0,-1,1403.437,580.583)" fill="rgb(0,0,0)" mask="url(#_mask_n8ZTjPB1HH4Cmth5JWZLcm6Q0jW5YjI7)" vector-effect="non-scaling-stroke" stroke-width="2" stroke="rgb(0,0,0)" stroke-opacity="100" stroke-linejoin="miter" stroke-linecap="square" stroke-miterlimit="2"/></g><rect x="660.719" y="84.375" width="83.333" height="83.333" transform="matrix(-1,0,0,-1,1404.771,252.083)" fill="rgb(0,0,0)"/><clipPath id="_clipPath_neNru76SIFX7LP8pN7E90kW8W5srJ3A0"><rect x="660.719" y="84.374" width="83.333" height="83.333" transform="matrix(1,0,0,1,0,0)" fill="rgb(255,255,255)"/></clipPath><g clip-path="url(#_clipPath_neNru76SIFX7LP8pN7E90kW8W5srJ3A0)"><mask id="_mask_jFFhDM1ws1LidIUFXBk5GyKHf2GMfTni"><rect x="660.719" y="84.375" width="83.333" height="83.333" fill="white" stroke="none"/></mask><rect x="660.719" y="84.375" width="83.333" height="83.333" transform="matrix(-1,0,0,-1,1404.771,252.083)" fill="rgb(0,0,0)"/><rect x="660.719" y="84.375" width="83.333" height="83.333" transform="matrix(-1,0,0,-1,1404.771,252.083)" fill="rgb(0,0,0)" mask="url(#_mask_jFFhDM1ws1LidIUFXBk5GyKHf2GMfTni)" vector-effect="non-scaling-stroke" stroke-width="2" stroke="rgb(0,0,0)" stroke-opacity="100" stroke-linejoin="miter" stroke-linecap="square" stroke-miterlimit="2"/></g><rect x="497.083" y="1.625" width="83.333" height="83.333" transform="matrix(-1,0,0,-1,1077.499,86.583)" fill="rgb(255,255,255)"/><clipPath id="_clipPath_xwXBoj4MLEdVThUbcScYS3azp1eOCWOh"><rect x="497.082" y="1.624" width="83.333" height="83.333" transform="matrix(1,0,0,1,0,0)" fill="rgb(255,255,255)"/></clipPath><g clip-path="url(#_clipPath_xwXBoj4MLEdVThUbcScYS3azp1eOCWOh)"><mask id="_mask_0TlOne5Yd53QAZ05lBtOwTLzVOjPjnz5"><rect x="497.083" y="1.625" width="83.333" height="83.333" fill="white" stroke="none"/></mask><rect x="497.083" y="1.625" width="83.333" height="83.333" transform="matrix(-1,0,0,-1,1077.499,86.583)" fill="rgb(255,255,255)"/><rect x="497.083" y="1.625" width="83.333" height="83.333" transform="matrix(-1,0,0,-1,1077.499,86.583)" fill="rgb(255,255,255)" mask="url(#_mask_0TlOne5Yd53QAZ05lBtOwTLzVOjPjnz5)" vector-effect="non-scaling-stroke" stroke-width="2" stroke="rgb(0,0,0)" stroke-opacity="100" stroke-linejoin="miter" stroke-linecap="square" stroke-miterlimit="2"/></g><rect x="661.582" y="1.625" width="83.333" height="83.333" transform="matrix(-1,0,0,-1,1406.497,86.583)" fill="rgb(255,255,255)"/><clipPath id="_clipPath_C6Bo4SQ4r8LtRY0MMcNiIzo9F9ZK4zht"><rect x="661.582" y="1.624" width="83.333" height="83.333" transform="matrix(1,0,0,1,0,0)" fill="rgb(255,255,255)"/></clipPath><g clip-path="url(#_clipPath_C6Bo4SQ4r8LtRY0MMcNiIzo9F9ZK4zht)"><mask id="_mask_EW8X6ZyCmczivRZFKdVAD7iTKHXQhAVg"><rect x="661.582" y="1.625" width="83.333" height="83.333" fill="white" stroke="none"/></mask><rect x="661.582" y="1.625" width="83.333" height="83.333" transform="matrix(-1,0,0,-1,1406.497,86.583)" fill="rgb(255,255,255)"/><rect x="661.582" y="1.625" width="83.333" height="83.333" transform="matrix(-1,0,0,-1,1406.497,86.583)" fill="rgb(255,255,255)" mask="url(#_mask_EW8X6ZyCmczivRZFKdVAD7iTKHXQhAVg)" vector-effect="non-scaling-stroke" stroke-width="2" stroke="rgb(0,0,0)" stroke-opacity="100" stroke-linejoin="miter" stroke-linecap="square" stroke-miterlimit="2"/></g><rect x="579.052" y="0.875" width="83.333" height="83.333" transform="matrix(-1,0,0,-1,1241.437,85.083)" fill="rgb(0,0,0)"/><clipPath id="_clipPath_QqWgra8XQxWTM8wUSHShmbV4knqGsPiJ"><rect x="579.052" y="0.874" width="83.333" height="83.333" transform="matrix(1,0,0,1,0,0)" fill="rgb(255,255,255)"/></clipPath><g clip-path="url(#_clipPath_QqWgra8XQxWTM8wUSHShmbV4knqGsPiJ)"><mask id="_mask_G49ZQ5vO4R70mB0MXNv8ekseMOmEAofO"><rect x="579.052" y="0.875" width="83.333" height="83.333" fill="white" stroke="none"/></mask><rect x="579.052" y="0.875" width="83.333" height="83.333" transform="matrix(-1,0,0,-1,1241.437,85.083)" fill="rgb(0,0,0)"/><rect x="579.052" y="0.875" width="83.333" height="83.333" transform="matrix(-1,0,0,-1,1241.437,85.083)" fill="rgb(0,0,0)" mask="url(#_mask_G49ZQ5vO4R70mB0MXNv8ekseMOmEAofO)" vector-effect="non-scaling-stroke" stroke-width="2" stroke="rgb(0,0,0)" stroke-opacity="100" stroke-linejoin="miter" stroke-linecap="square" stroke-miterlimit="2"/></g><rect x="83.053" y="1" width="83.333" height="83.333" transform="matrix(1,0,0,1,0,0)" fill="rgb(0,0,0)"/><clipPath id="_clipPath_ZgyZ0YrP5l5FZt8Cs9XEi53DcQ80YdtY"><rect x="83.053" y="1" width="83.333" height="83.333" transform="matrix(1,0,0,1,0,0)" fill="rgb(255,255,255)"/></clipPath><g clip-path="url(#_clipPath_ZgyZ0YrP5l5FZt8Cs9XEi53DcQ80YdtY)"><mask id="_mask_wfoEXhcqXwPgb0Y4LCTMoDghbIjZ57Q1"><rect x="83.053" y="1" width="83.333" height="83.333" fill="white" stroke="none"/></mask><rect x="83.053" y="1" width="83.333" height="83.333" transform="matrix(1,0,0,1,0,0)" fill="rgb(0,0,0)"/><rect x="83.053" y="1" width="83.333" height="83.333" transform="matrix(1,0,0,1,0,0)" fill="rgb(0,0,0)" mask="url(#_mask_wfoEXhcqXwPgb0Y4LCTMoDghbIjZ57Q1)" vector-effect="non-scaling-stroke" stroke-width="2" stroke="rgb(0,0,0)" stroke-opacity="100" stroke-linejoin="miter" stroke-linecap="square" stroke-miterlimit="2"/></g></g></svg>